<mxfile host="app.diagrams.net" modified="2024-02-08T04:57:11.629Z" agent="Mozilla/5.0 (Linux; Android 10; K) AppleWebKit/537.36 (KHTML, like Gecko) Chrome/121.0.0.0 Mobile Safari/537.36" version="23.1.2" etag="OjCxKsBtMumge6rwoqww" type="github">
  <diagram name="Page-1" id="h_fq44cLUgnDWnM1p3W5">
    <mxGraphModel>
      <root>
        <mxCell id="0" />
        <mxCell id="1" parent="0" />
      </root>
    </mxGraphModel>
  </diagram>
</mxfile>
